Coordinates
version=1
nRows=18
nColumns=28
inDegrees=yes

Units are S.I. units (second, meters, Newtons, ...)
Angles are in degrees.

endheader
time	pelvis_tilt	pelvis_list	pelvis_rotation	pelvis_tx	pelvis_ty	pelvis_tz	hip_flexion_r	hip_adduction_r	hip_rotation_r	knee_angle_r	ankle_angle_r	subtalar_angle_r	mtp_angle_r	hip_flexion_l	hip_adduction_l	hip_rotation_l	knee_angle_l	socket_flexion	socket_adduction	socket_rotation	socket_tx	socket_ty	socket_tz	foot_flex	lumbar_extension	lumbar_bending	lumbar_rotation
      0.63333333	     -0.31750483	     -4.05499479	      6.92441264	     -0.03180264	      0.98779303	      0.29314730	     24.62141572	      4.33673734	     -7.46550694	     -5.95357330	     17.86077656	    -16.94317856	    -17.32271866	    -24.35778857	     -8.22032318	     -3.63934276	      4.46972443	      4.35551208	      5.42337242	     21.35055418	      0.00000000	      0.00485650	      0.00000000	      8.06458200	     -9.49268311	      4.66318426	     -4.80490731
      0.63750000	     -0.23257525	     -4.17448660	      6.98708966	     -0.02540609	      0.98692392	      0.29325978	     24.79104406	      4.50930197	     -7.17784337	     -6.84274597	     17.56289182	    -16.98061537	    -17.24577257	    -24.67447173	     -8.41122333	     -3.55321148	      4.27432240	      4.44951844	      5.40839522	     21.29789404	      0.00000000	      0.00495746	      0.00000000	      8.02083169	     -9.55121267	      4.90907216	     -4.76882697
      0.64166667	     -0.13812708	     -4.32018098	      6.94946850	     -0.01901391	      0.98599996	      0.29352202	     25.03500897	      4.74125351	     -6.95384288	     -7.89498991	     17.19836533	    -17.07155919	    -17.13271316	    -25.00675822	     -8.57934765	     -3.59615096	      4.03641612	      4.54576612	      5.38961320	     21.19308793	      0.00000000	      0.00493011	      0.00000000	      7.94707741	     -9.61657674	      5.17926219	     -4.76200282
      0.64583333	     -0.10113186	     -4.43359288	      6.69075580	     -0.01210023	      0.98485403	      0.29395323	     25.33952182	      4.99835086	     -6.71000841	     -8.92273298	     14.75480679	    -18.07519011	     -8.85221711	    -25.42789180	     -8.58579904	     -4.16393136	      3.94200179	      4.66520071	      5.37114356	     21.27506583	      0.00000000	      0.00502938	      0.00000000	      7.70849837	     -9.55942572	      5.38464776	     -4.47650347
      0.65000000	     -0.02422959	     -4.58939331	      6.70870010	     -0.00569299	      0.98401293	      0.29424866	     25.54730644	      5.22748388	     -6.44163479	     -9.89750944	     14.36763357	    -17.99766569	     -8.86252026	    -25.68107217	     -8.80044400	     -4.09308514	      3.63234392	      4.77050290	      5.36570536	     21.20077959	      0.00000000	      0.00501107	      0.00000000	      7.75813115	     -9.61376416	      5.67011706	     -4.49138766
      0.65416667	      0.04077987	     -4.77081920	      6.58671347	      0.00088838	      0.98314080	      0.29457747	     25.84712932	      5.50261726	     -6.34223785	    -11.04032972	     13.94624533	    -18.02497234	     -8.77621804	    -25.95252419	     -8.94917847	     -4.25907276	      3.26936934	      4.83809392	      5.28786386	     21.10073337	      0.00000000	      0.00496707	      0.00000000	      7.60896211	     -9.61654843	      5.97749045	     -4.47795836
      0.65833333	     -0.03245628	     -4.96114365	      6.41503794	      0.00760695	      0.98203803	      0.29504127	     26.28488029	      5.79784879	     -6.09706512	    -12.20639756	     13.46202799	    -18.00506719	     -8.06290895	    -26.02025696	     -9.08836210	     -4.71335659	      2.73359445	      4.81409823	      5.24822963	     21.27448610	      0.00000000	      0.00477859	      0.00000000	      7.44841286	     -9.46166484	      6.26645906	     -4.21389665
      0.66250000	     -0.16496494	     -5.04826033	      6.28239252	      0.01416431	      0.98096315	      0.29561123	     26.76265022	      5.97393394	     -5.83697387	    -13.31612434	     12.26688625	    -18.33099544	     -4.85131722	    -25.84760147	     -9.15771705	     -4.92294100	      1.79032899	      4.60395033	      5.08957714	     21.34078345	      0.00000000	      0.00450131	      0.00000000	      7.27123790	     -9.25588176	      6.39783980	     -4.06594237
      0.66666667	     -0.06257325	     -5.23303117	      6.26626491	      0.02067922	      0.98033595	      0.29599299	     26.91903568	      6.24466447	     -5.63376041	    -14.30307253	     11.91111394	    -18.30843156	     -4.84595924	    -26.08848141	     -9.38173842	     -4.85202261	      1.45013265	      4.77362048	      5.09881011	     21.19946538	      0.00000000	      0.00441770	      0.00000000	      7.02679429	     -9.32261212	      6.70029562	     -4.12005629
      0.67083333	      0.03696229	     -5.44977034	      6.14996182	      0.02739039	      0.97972863	      0.29644502	     27.11872961	      6.56509487	     -5.57369088	    -15.38890089	     11.48942208	    -18.35104125	     -4.78511860	    -26.32567415	     -9.57889812	     -4.98005202	      1.00584809	      4.90308746	      5.06447744	     21.03684695	      0.00000000	      0.00432158	      0.00000000	      6.77465002	     -9.34966622	      7.05935038	     -4.13221112
      0.67500000	      0.12469513	     -5.67876845	      6.04950270	      0.03400899	      0.97910956	      0.29700734	     27.30528162	      6.90028303	     -5.44196156	    -16.42285961	     11.10207352	    -18.35964264	     -4.71115134	    -26.50923084	     -9.81358521	     -5.08022651	      0.51741464	      5.02465023	      5.06205853	     20.91328738	      0.00000000	      0.00411244	      0.00000000	      6.48655431	     -9.39185284	      7.39518237	     -4.10752247
      0.67916667	      0.20704651	     -5.90272704	      5.96275675	      0.04064645	      0.97857273	      0.29753312	     27.46151239	      7.22937513	     -5.28522237	    -17.40351784	     10.75005226	    -18.35640246	     -4.64539080	    -26.65518478	    -10.04812756	     -5.13828016	      0.00149931	      5.17661176	      5.06452215	     20.81356277	      0.00000000	      0.00389638	      0.00000000	      6.18549932	     -9.41821095	      7.72381577	     -4.06473229
      0.68333333	      0.14170454	     -6.28654959	      5.74264205	      0.04753537	      0.97786198	      0.29822333	     27.73461648	      7.75319488	     -5.15380091	    -18.27536986	     10.00495069	    -18.63961300	     -3.56678596	    -26.32688238	    -10.40318607	     -5.91828710	     -1.60469953	      4.65398563	      4.80482086	     21.18804176	      0.00000000	      0.00343432	      0.00000000	      5.85812345	     -9.23792494	      8.17230182	     -3.57233827
      0.68750000	      0.23772899	     -6.45589030	      5.62834092	      0.05424079	      0.97752962	      0.29880352	     27.83056378	      8.02867425	     -5.02162038	    -19.23020815	      9.70128944	    -18.66851891	     -3.49135518	    -26.46493373	    -10.56735215	     -5.88569967	     -2.13139330	      4.86472435	      4.82398807	     20.98100049	      0.00000000	      0.00339330	      0.00000000	      5.49868549	     -9.28138930	      8.44229961	     -3.63202569
      0.69166667	      0.18663619	     -6.69087202	      5.59599262	      0.06082411	      0.97710098	      0.29938582	     28.02984732	      8.34188681	     -4.89601584	    -20.02139566	      8.85450727	    -19.14058615	     -2.02670766	    -25.93819774	    -10.88996630	     -6.13355451	     -4.01739222	      4.30335928	      4.53588901	     21.15641221	      0.00000000	      0.00307207	      0.00000000	      5.15720823	     -9.15270103	      8.76260559	     -3.58088168
      0.69583333	      0.27553295	     -6.88893104	      5.47498860	      0.06749534	      0.97686145	      0.30008654	     28.09053088	      8.66270775	     -4.76543492	    -20.89951568	      8.62976280	    -19.11232671	     -1.99517748	    -26.04589486	    -11.09252410	     -6.07803892	     -4.50390855	      4.58993295	      4.60492185	     20.96391501	      0.00000000	      0.00294539	      0.00000000	      4.73068612	     -9.19410678	      9.03886128	     -3.58878350
      0.70000000	      0.36912288	     -7.13319329	      5.29885192	      0.07429817	      0.97664862	      0.30082748	     28.13241698	      9.03712445	     -4.71598434	    -21.76485018	      8.40721093	    -19.09899865	     -1.95462586	    -26.12893479	    -11.31476751	     -6.09928506	     -5.13635752	      4.80309822	      4.65400357	     20.66732527	      0.00000000	      0.00279533	      0.00000000	      4.29923621	     -9.22482501	      9.36957943	     -3.54781909
      0.70416667	      0.45876705	     -7.39503749	      5.14211504	      0.08106410	      0.97650625	      0.30155291	     28.13821546	      9.42423859	     -4.66772459	    -22.55554318	      8.20505669	    -19.07769849	     -1.90740830	    -26.15262348	    -11.56813343	     -6.10993588	     -5.86891910	      4.98669405	      4.70046454	     20.39697932	      0.00000000	      0.00260549	      0.00000000	      3.86560839	     -9.25370015	      9.71086903	     -3.46499914
